# xmcd
#
# Track frame offsets:
#	150
#	16605
#	33436
#	48621
#	65577
#	84497
#	101982
#	111999
#
# Disc length: 1693 seconds
#
# Revision: 0
# Processed by: cddbd v1.5.2PL0 Copyright (c) Steve Scherf et al.
# Submitted via: audiograbber 1.83.01
#
DISCID=66069b08
DTITLE=No Big Deal - Uncovered
DYEAR=2008
DGENRE=Country
TTITLE0=I Can't Live Without You
TTITLE1=No Big Deal
TTITLE2=Coffee, Scotch and TN Blues
TTITLE3=Strictly Rhythm
TTITLE4=I Got No Reason
TTITLE5=You're Perfect For Me
TTITLE6=Won't Stop Drinkin'
TTITLE7=I Can't Find the Keys
EXTD=
EXTT0=
EXTT1=
EXTT2=
EXTT3=
EXTT4=
EXTT5=
EXTT6=
EXTT7=
PLAYORDER=
